<svg width="800" height="800" viewBox="0 0 800 800" fill="none" xmlns="http://www.w3.org/2000/svg">
<rect width="800" height="800" fill="white"/>
<path d="M292.372 700.021C244.956 700.021 210.228 684.661 188.19 653.94C166.819 623.22 156.134 582.816 156.134 532.728V174.099C169.49 165.417 186.186 157.403 206.221 150.057C226.924 142.043 248.629 135.364 271.336 130.021C294.71 124.011 317.082 120.004 338.453 118V505.68C338.453 531.058 342.794 550.425 351.476 563.782C360.158 577.139 374.85 583.817 395.553 583.817C404.903 583.817 415.255 582.482 426.608 579.81C437.961 576.471 449.314 571.462 460.668 564.784L486.713 615.874C475.36 632.569 459.332 647.262 438.629 659.951C418.594 672.64 395.887 682.323 370.51 689.002C345.132 696.348 319.086 700.021 292.372 700.021ZM423.603 337.385L95.0264 325.364C95.0264 308.668 96.6959 292.306 100.035 276.278C104.042 260.25 109.385 249.898 116.063 245.223L451.652 225.188C453.655 229.863 454.991 234.872 455.659 240.215C456.995 244.89 457.662 249.898 457.662 255.241C457.662 275.276 454.657 292.974 448.647 308.334C443.304 323.027 434.956 332.71 423.603 337.385Z" fill="black"/>
<path d="M585.548 262.625C606.761 255.211 620.424 242.139 631.363 227.811C642.731 213.477 648.294 198.373 648.053 182.499C647.745 162.334 642.794 147.176 633.199 137.023C624.026 126.434 610.215 121.281 591.767 121.562C577.18 121.784 564.82 127.336 554.686 138.219C544.553 149.102 539.601 162.051 539.829 177.067C540.254 211.269 540.856 259.496 540.958 267.795C541.061 276.093 568.423 268.61 585.548 262.625Z" fill="black"/>
<path d="M588.529 472.196C609.742 464.782 623.405 451.71 634.344 437.382C645.712 423.048 651.275 407.944 651.034 392.069C650.726 371.905 645.775 356.747 636.18 346.594C627.007 336.005 613.196 330.852 594.748 331.133C580.161 331.355 567.8 336.907 557.667 347.79C547.534 358.672 542.582 371.622 542.81 386.638C543.235 420.84 543.837 469.067 543.939 477.365C544.042 485.664 571.404 478.181 588.529 472.196Z" fill="black"/>
<path d="M588.718 678.485C609.931 671.071 623.594 658 634.533 643.672C645.902 629.337 651.465 614.233 651.223 598.359C650.916 578.195 645.964 563.036 636.369 552.883C627.196 542.295 613.385 537.141 594.937 537.422C580.35 537.644 567.99 543.197 557.857 554.079C547.723 564.962 542.771 577.911 543 592.927C543.424 627.129 544.026 675.356 544.129 683.655C544.231 691.954 571.593 684.47 588.718 678.485Z" fill="black"/>
</svg>
